<svg xmlns="http://www.w3.org/2000/svg" width="24" height="20" viewBox="0 0 28 20"><path fill="#f57a30" d="M28 3.22v13.566C28 18.56 26.464 20 24.576 20H3.424C1.535 20 0 18.559 0 16.786V3.214C0 1.44 1.535 0 3.424 0h21.158C26.47 0 28.005 1.446 28 3.22zm-1.565 13.566V3.22c0-.962-.834-1.746-1.86-1.746H3.425c-1.026 0-1.86.784-1.86 1.746v13.567c0 .963.834 1.746 1.86 1.746h21.158c1.025 0 1.86-.783 1.86-1.746zm-1.9-.826a.705.705 0 0 1 .03 1.038.808.808 0 0 1-.569.229.805.805 0 0 1-.538-.202l-6.964-6.21-1.952 1.643a.808.808 0 0 1-.522.19.813.813 0 0 1-.521-.185l-1.9-1.593-7.005 6.15a.826.826 0 0 1-1.107-.038.706.706 0 0 1 .035-1.039l6.9-6.063-6.929-5.813A.702.702 0 0 1 3.43 3.03a.817.817 0 0 1 1.106-.06l7.497 6.297c.046.032.087.065.127.103 0 .006.006.01.012.016l1.842 1.545 9.444-7.956a.823.823 0 0 1 1.106.055c.29.304.26.766-.058 1.038l-6.848 5.764z"/></svg>