<svg xmlns="http://www.w3.org/2000/svg" width="24" height="30" viewBox="0 0 24 30"><path fill="#f57a30" d="M18.199 12.256c0 3.456-2.782 6.273-6.208 6.273s-6.208-2.823-6.208-6.279c0-3.455 2.782-6.272 6.208-6.272s6.208 2.823 6.208 6.278zm-1.488 0c0-2.626-2.12-4.768-4.72-4.768-2.6 0-4.72 2.142-4.72 4.768 0 2.627 2.114 4.77 4.72 4.77s4.72-2.143 4.72-4.77zm7.289-.14c0 .773-.073 1.546-.219 2.3-.018.117-.042.24-.079.388a11.986 11.986 0 0 1-.808 2.4c-1.227 2.927-3.93 7.48-9.792 12.397a1.718 1.718 0 0 1-2.199 0c-5.868-4.922-8.57-9.47-9.804-12.422a11.666 11.666 0 0 1-.802-2.382c-.067-.264-.085-.405-.085-.405a12.37 12.37 0 0 1-.158-3.455C.625 4.916 5.576.215 11.565.006c.14-.006.286-.006.426-.006C18.606 0 23.988 5.438 24 12.115zm-1.5.005c0-5.984-4.92-10.82-10.88-10.611-5.248.184-9.58 4.302-10.084 9.574-.097 1.02-.048 2.05.14 3.05 0 .013.006.025.006.037.006.031.025.13.061.289.164.73.4 1.436.71 2.111 1.18 2.817 3.76 7.144 9.392 11.87a.257.257 0 0 0 .152.055.245.245 0 0 0 .152-.055c5.63-4.72 8.206-9.047 9.379-11.845.316-.7.552-1.406.716-2.13a11.119 11.119 0 0 0 .255-2.345z"/></svg>