<svg xmlns="http://www.w3.org/2000/svg" width="26" height="26" viewBox="0 0 26 26"><path fill="#f57a30" d="M23.578 19.124c.555.55.846 1.203.846 1.884 0 .675-.286 1.334-.83 1.9-.236.247-.478.483-.714.708-.347.335-.676.649-.962.994-.006.011-.017.017-.022.028-.836.906-1.902 1.362-3.171 1.362-.11 0-.231-.006-.347-.011-1.885-.121-3.572-.83-4.836-1.428-3.309-1.598-6.205-3.866-8.612-6.739-1.984-2.383-3.314-4.607-4.205-7.007C.363 9.837-.11 8.343.022 6.74a4.017 4.017 0 0 1 1.192-2.554l1.87-1.884.01-.01c.55-.528 1.198-.808 1.869-.808.67 0 1.308.28 1.84.807.358.33.704.681 1.034 1.022.165.176.34.352.511.522l1.5 1.5c1.155 1.152 1.155 2.646 0 3.8-.153.153-.307.312-.461.466-.407.412-.824.84-1.275 1.252.335.742.797 1.472 1.484 2.34 1.418 1.74 2.896 3.086 4.523 4.119.16.098.346.192.544.29.138.072.28.143.423.22l1.737-1.73c.555-.554 1.204-.845 1.88-.845.681 0 1.324.296 1.857.851zm-1.056 1.038l-3.028-3.026-.01-.01c-.171-.188-.452-.402-.792-.402-.347 0-.643.225-.83.412l-1.88 1.878c-.093.094-.379.38-.835.38-.182 0-.357-.045-.544-.138-.022-.011-.044-.027-.066-.039a7.083 7.083 0 0 0-.544-.29 7.443 7.443 0 0 1-.676-.369c-1.765-1.115-3.364-2.57-4.88-4.437l-.006-.006c-.836-1.06-1.385-1.95-1.775-2.894a8.912 8.912 0 0 1-.017-.05c-.099-.312-.187-.773.286-1.246.005-.01.016-.016.027-.027.478-.429.918-.868 1.38-1.34.16-.154.313-.313.472-.472.583-.583.583-1.12 0-1.703l-1.5-1.5c-.176-.18-.352-.356-.522-.532a28.007 28.007 0 0 0-1.006-1c-.176-.175-.456-.384-.802-.384-.28 0-.566.137-.836.39L2.264 5.23a2.52 2.52 0 0 0-.758 1.63c-.083 1.006.104 2.071.615 3.439.83 2.24 2.083 4.327 3.957 6.584 2.27 2.708 5.002 4.844 8.112 6.349 1.138.544 2.655 1.18 4.287 1.285.083.006.17.006.253.006.858 0 1.512-.28 2.067-.873.34-.401.703-.759 1.06-1.099.237-.23.457-.44.67-.67-.005.006-.005 0 0 0 .561-.582.561-1.159-.005-1.719zm-9.068-14.85c.071-.4.45-.67.857-.604a8.478 8.478 0 0 1 4.59 2.378 8.467 8.467 0 0 1 2.38 4.586.742.742 0 0 1-.61.856.737.737 0 0 1-.857-.604 7 7 0 0 0-1.969-3.79 6.97 6.97 0 0 0-3.792-1.965.733.733 0 0 1-.599-.857zm11.932 6.991a.737.737 0 0 1-.857-.604 12.439 12.439 0 0 0-3.502-6.75 12.492 12.492 0 0 0-6.754-3.498.745.745 0 0 1-.61-.857.74.74 0 0 1 .852-.604 13.95 13.95 0 0 1 7.557 3.916 13.931 13.931 0 0 1 3.918 7.551.728.728 0 0 1-.604.846z"/></svg>